<?xml version="1.0" standalone="no"?><!DOCTYPE svg PUBLIC "-//W3C//DTD SVG 1.1//EN" "http://www.w3.org/Graphics/SVG/1.1/DTD/svg11.dtd"><svg class="icon" height="512" viewBox="0 0 1024 1024" version="1.1" xmlns="http://www.w3.org/2000/svg"><path d="M511.741952 145.408C309.42208 145.408 145.408 309.421056 145.408 511.741952c0 202.322944 164.01408 366.333952 366.333952 366.333952s366.333952-164.011008 366.333952-366.333952C878.075904 309.421056 714.061824 145.408 511.741952 145.408L511.741952 145.408zM652.053504 608.881664c5.961728 5.958656 5.961728 15.624192 0 21.58592l-21.58592 21.58592c-5.961728 5.95968-15.627264 5.95968-21.58592 0l-97.139712-97.138688-97.139712 97.138688c-5.95968 5.95968-15.624192 5.95968-21.58592 0l-21.58592-21.58592c-5.961728-5.961728-5.961728-15.627264 0-21.58592l97.139712-97.139712-97.140736-97.139712c-5.961728-5.95968-5.961728-15.624192 0-21.58592l21.58592-21.58592c5.961728-5.95968 15.627264-5.95968 21.58592 0l97.139712 97.139712 97.139712-97.139712c5.95968-5.95968 15.624192-5.95968 21.58592 0l21.58592 21.58592c5.962752 5.961728 5.962752 15.627264 0 21.58592l-97.138688 97.139712L652.053504 608.881664 652.053504 608.881664z" /></svg>